<svg width="24" height="24" viewBox="0 0 24 24" fill="none" xmlns="http://www.w3.org/2000/svg">
<g clip-path="url(#clip0_1759_2857)">
<path fill-rule="evenodd" clip-rule="evenodd" d="M19.8314 8.77847C20.4539 9.96661 20.8022 11.279 20.8506 12.6196H17.4575C17.4357 11.319 17.2397 10.0272 16.875 8.77847H19.8314ZM4.18365 21.1457C4.35265 21.3033 4.52618 21.4565 4.70426 21.6034L5.13081 21.0841C4.96321 20.9459 4.79997 20.8024 4.64112 20.6537L4.18365 21.1457ZM11.7364 23.5073L11.7269 23.5108L11.7268 23.5109C11.7029 23.5192 11.6799 23.5301 11.6583 23.5434L11.65 23.5487C11.6374 23.5573 11.6252 23.5667 11.6138 23.5769C11.609 23.5812 11.6036 23.586 11.5991 23.5908V23.5909C11.5907 23.5993 11.5826 23.6082 11.5751 23.6175C11.5057 23.7035 11.4829 23.8182 11.5143 23.9242C11.5458 24.0302 11.6273 24.1139 11.7324 24.1482V24.1645H12.1256L12.1975 24.1621L12.2693 24.1597L12.3412 24.1567L12.4257 24.1524L12.3876 23.4812L12.3114 23.4849L12.2437 23.4879L12.1763 23.4898L12.1086 23.4922L12.0406 23.4937H11.9045H11.7366V23.5095L11.7364 23.5073ZM5.25219 22.0268C5.43916 22.1627 5.63017 22.2928 5.82531 22.4171L6.18517 21.8487C6.00174 21.732 5.82227 21.6098 5.64666 21.4822L5.2521 22.0268H5.25219ZM6.42121 22.7719C6.62409 22.8839 6.82937 22.9891 7.03861 23.0889L7.32492 22.4787C7.12846 22.384 6.93621 22.2868 6.74536 22.1809L6.42121 22.7719ZM7.67414 23.3661C7.8874 23.4522 8.1063 23.5306 8.32592 23.6034L8.53549 22.9636C8.3293 22.8956 8.12493 22.8213 7.92237 22.7404L7.67282 23.3653L7.67414 23.3661ZM8.9903 23.7999C9.21587 23.8572 9.43844 23.91 9.66713 23.955L9.79508 23.2942C9.58182 23.2526 9.37199 23.2028 9.16086 23.1492L8.99021 23.7999L8.9903 23.7999ZM10.3499 24.0665C10.5792 24.0965 10.809 24.1198 11.0393 24.1363L11.0857 23.4656C10.8687 23.4503 10.6526 23.4282 10.4374 23.3995L10.3499 24.0659L10.3499 24.0665ZM13.1153 24.0931L13.1934 24.084L13.2634 24.075L13.3335 24.0657L13.4033 24.0563L13.4732 24.0462L13.5427 24.0361L13.6123 24.0251L13.751 24.0022L13.8014 23.9929L13.6832 23.3314L13.6368 23.3394L13.5718 23.3504L13.5065 23.361L13.4412 23.3712L13.3756 23.3807L13.2446 23.3994L13.1787 23.4079L13.1126 23.4159L13.0387 23.4247L13.1152 24.093L13.1153 24.0931ZM14.4802 23.8513L14.57 23.8292L14.6372 23.8122L14.7044 23.7948L14.7714 23.7767L14.8383 23.7583L14.9047 23.7397L14.971 23.7207L15.0374 23.7015L15.1033 23.6812L15.1489 23.6674L14.9492 23.0249L14.9076 23.038L14.8456 23.0566L14.7835 23.0747L14.7211 23.0929L14.6584 23.1108L14.5958 23.1278L14.5329 23.1441L14.47 23.1609L14.4068 23.1769L14.3212 23.1979L14.4812 23.8513L14.4802 23.8513ZM15.8046 23.4424L15.8824 23.4117L15.9453 23.385L16.0088 23.3597L16.0723 23.3331L16.1354 23.3065L16.2612 23.2532L16.3861 23.1999L16.4439 23.1733L16.1669 22.5602L16.1136 22.5844L15.9964 22.6377L15.9372 22.663L15.8782 22.6872L15.8188 22.7117L15.7591 22.7362L15.6997 22.7597L15.6396 22.7832L15.5655 22.8112L15.8054 23.4403L15.8046 23.4424ZM17.0687 22.8713L17.1194 22.8447L17.179 22.8127L17.2385 22.7801L17.3569 22.714L17.4155 22.6799L17.4739 22.646L17.5322 22.6119L17.5903 22.5775L17.6703 22.5287L17.3183 21.9545L17.2447 21.999L17.1914 22.0316L17.1367 22.0638L17.0818 22.0953L17.0264 22.1271L16.9709 22.1585L16.8594 22.2199L16.8032 22.25L16.7528 22.2766L17.07 22.8698L17.0687 22.8713ZM18.2505 22.1494L18.3246 22.0961L18.3795 22.0569L18.4342 22.0172L18.4875 21.9774L18.5409 21.9372L18.6476 21.8556L18.7009 21.8145L18.7542 21.7732L18.8038 21.7341L18.385 21.2081L18.3386 21.2444L18.2887 21.2835L18.2386 21.3219L18.1882 21.3603L18.1378 21.3984L18.0869 21.4363L17.9845 21.511L17.933 21.548L17.8621 21.5975L18.2485 22.1483L18.2505 22.1494ZM19.3358 21.2867L19.3723 21.2532L19.4222 21.2082L19.4715 21.1623L19.5205 21.1162L19.5693 21.0704L19.6179 21.024L19.6661 20.9771L19.7141 20.9302L19.7616 20.8827L19.8091 20.8347L19.8357 20.8081L19.3545 20.3378L19.2857 20.4074L19.241 20.4519L19.196 20.4965L19.1506 20.5405L19.105 20.5839L19.0592 20.6276L19.0131 20.6706L18.9667 20.7138L18.92 20.7564L18.8833 20.7895L19.3364 21.2875L19.3358 21.2867ZM20.3056 20.2985L20.3552 20.241L20.3986 20.1898L20.4418 20.1381L20.4848 20.0864L20.5274 20.0347L20.5698 19.9827L20.6119 19.9293L20.6538 19.876L20.6951 19.8227L20.7439 19.7594L20.2081 19.3527L20.1638 19.41L20.1249 19.4599L20.0857 19.5097L20.0462 19.559L20.0063 19.6083L19.9258 19.7059L19.8852 19.7542L19.8439 19.8027L19.797 19.8561L20.3057 20.2962L20.3056 20.2985ZM21.1477 19.1973L21.1678 19.1677L21.2048 19.1117L21.2416 19.0551L21.2783 18.9981L21.3146 18.9413L21.3506 18.8842L21.3863 18.8267L21.4215 18.7694L21.4565 18.7115L21.4911 18.6532L21.5159 18.6105L20.9351 18.2719L20.9121 18.3106L20.8796 18.364L20.8468 18.4173L20.8137 18.4706L20.7801 18.524L20.7463 18.5773L20.678 18.684L20.643 18.7373L20.5881 18.8192L21.148 19.1924L21.1477 19.1973ZM21.8473 18L21.8793 17.9368L21.9092 17.8755L21.939 17.8147L21.9683 17.7529L21.9974 17.6918L22.0259 17.63L22.0542 17.5676L22.1074 17.4434L22.1392 17.3706L21.5199 17.1081L21.4913 17.1739L21.4647 17.2326L21.4381 17.2909L21.4115 17.349L21.3848 17.4074L21.3582 17.4647L21.3316 17.5228L21.3035 17.5801L21.2753 17.6372L21.2454 17.6969L21.8473 18ZM22.3947 16.7252L22.4107 16.6796L22.4333 16.6151L22.4554 16.55L22.4773 16.4847L22.52 16.3536L22.5405 16.2881L22.5608 16.222L22.5808 16.1561L22.6074 16.0655L21.9604 15.8818L21.9365 15.9644L21.9169 16.0273L21.898 16.0888L21.8785 16.1507L21.8588 16.212L21.8385 16.2736L21.818 16.3349L21.7972 16.3957L21.7759 16.457L21.7599 16.5026L22.3943 16.7258L22.3947 16.7252ZM22.7783 15.3923L22.7878 15.3491L22.8025 15.2811L22.8166 15.2126L22.8304 15.1441L22.8438 15.0758L22.8568 15.0067L22.8694 14.9376L22.8814 14.8689L22.8931 14.7993L22.9075 14.7108L22.2426 14.6092L22.2296 14.6892L22.2186 14.7545L22.2072 14.8195L22.1955 14.8841L22.1834 14.9489L22.1707 15.0134L22.1576 15.0776L22.1446 15.1422L22.1308 15.2059L22.1212 15.2496L22.7783 15.3922L22.7783 15.3923ZM22.9942 14.0231L23 13.9583L23.0061 13.8874L23.0117 13.8163L23.0168 13.7448L23.0215 13.6739L23.0258 13.6022L23.0299 13.5307L23.0331 13.459L23.0365 13.388L23.0384 13.3347L22.3664 13.3131L22.3645 13.364L22.3618 13.4315L22.3586 13.4989L22.3549 13.5658L22.3509 13.6335L22.3463 13.7005L22.3416 13.7674L22.3362 13.834L22.3303 13.9006L22.3247 13.9657L22.9947 14.0251L22.9942 14.0231ZM23.04 12.6403C23.034 12.4093 23.0205 12.1787 22.9998 11.9486L22.3299 12.008C22.3491 12.2248 22.3617 12.4418 22.3677 12.6591L23.04 12.6404L23.04 12.6403ZM22.9171 11.2597C22.8825 11.0313 22.8408 10.8033 22.7918 10.578L22.1344 10.7211C22.1808 10.9322 22.2197 11.1477 22.2522 11.3609L22.9171 11.2591L22.9171 11.2597ZM22.6238 9.90487C22.5609 9.68237 22.4913 9.46209 22.4148 9.24404L21.7806 9.4672C21.8517 9.67232 21.9171 9.8794 21.9768 10.0886L22.6238 9.90496L22.6238 9.90487ZM22.1653 8.59728C22.0749 8.38401 21.9786 8.17419 21.8757 7.96734L21.2744 8.26948C21.3712 8.46437 21.4611 8.66057 21.5461 8.86075L22.1659 8.59924L22.1653 8.59728ZM21.5473 7.35581C21.4316 7.15589 21.3101 6.95967 21.1829 6.76717L20.6231 7.13906C20.7433 7.32059 20.8574 7.50485 20.9664 7.69355L21.5481 7.35579L21.5473 7.35581ZM8.66089 2.20411C8.46015 2.26379 8.26097 2.3281 8.06451 2.39842L8.29246 3.03131C8.47713 2.9652 8.66328 2.9046 8.851 2.84953L8.66089 2.20411ZM7.41908 2.65225C7.20581 2.74368 6.99707 2.84071 6.79096 2.9455L7.09542 3.54534C7.28899 3.44674 7.48651 3.35524 7.68593 3.26967L7.41931 2.65252L7.41908 2.65225ZM6.18214 3.27657C5.98272 3.39331 5.78725 3.51616 5.59566 3.645L5.97126 4.20297C6.15198 4.08219 6.33566 3.9662 6.52362 3.85639L6.18265 3.27634L6.18214 3.27657ZM5.03127 4.04971C4.84784 4.19043 4.66886 4.33627 4.49435 4.48715L4.9363 4.99367C5.10052 4.85145 5.26936 4.71428 5.44282 4.58204L5.03227 4.04888L5.03127 4.04971ZM3.98542 4.95747C3.82013 5.1193 3.66102 5.2859 3.50554 5.45789L4.00539 5.90784C4.15131 5.74609 4.30176 5.58912 4.45676 5.43678L3.98487 4.9569L3.98542 4.95747ZM3.05772 5.98732C2.91394 6.16845 2.77586 6.35354 2.64345 6.54264L3.19555 6.92706C3.31995 6.74841 3.44989 6.57421 3.58534 6.40429L3.0578 5.98739L3.05772 5.98732ZM2.26438 7.1231C2.14361 7.32063 2.03008 7.52137 1.92151 7.72584L2.51625 8.03986C2.61806 7.84736 2.72565 7.65849 2.83884 7.47309L2.26438 7.1231ZM1.6168 8.34809C1.52134 8.55923 1.43362 8.77226 1.35018 8.98791L1.97905 9.22625C2.05638 9.02286 2.13898 8.82236 2.22859 8.62459L1.61547 8.34733L1.6168 8.34809ZM2.99265 13.03H8.17664V18.1165H2.99265V13.0292V13.03ZM4.25812 17.2928H6.91142C7.02931 17.2895 7.13691 17.2246 7.19495 17.1219C7.2529 17.0192 7.2529 16.8937 7.19495 16.7909C7.13691 16.6883 7.02932 16.6235 6.91142 16.6201H4.25812C4.14023 16.6235 4.03272 16.6883 3.97468 16.7909C3.91664 16.8937 3.91664 17.0192 3.97468 17.1219C4.03272 17.2246 4.14022 17.2895 4.25812 17.2928ZM4.25812 15.9097H6.91142V15.9097C7.02931 15.9064 7.13691 15.8416 7.19495 15.7388C7.2529 15.6362 7.2529 15.5106 7.19495 15.4079C7.13691 15.3052 7.02932 15.2404 6.91142 15.2371H4.25812C4.14023 15.2404 4.03272 15.3052 3.97468 15.4079C3.91664 15.5106 3.91664 15.6362 3.97468 15.7388C4.03272 15.8416 4.14022 15.9064 4.25812 15.9097V15.9097ZM4.25812 14.5267H6.91142V14.5266C7.02931 14.5233 7.13691 14.4585 7.19495 14.3558C7.2529 14.2531 7.2529 14.1275 7.19495 14.0249C7.13691 13.9222 7.02932 13.8574 6.91142 13.8541H4.25812C4.14023 13.8574 4.03272 13.9222 3.97468 14.0249C3.91664 14.1275 3.91664 14.2531 3.97468 14.3558C4.03272 14.4585 4.14022 14.5233 4.25812 14.5266V14.5267ZM0 10.62V18.1164H2.31921V12.3565H5.18399V10.62L0 10.62ZM3.3065 12.0017C3.21573 12.0043 3.12785 11.97 3.06272 11.9067C2.99759 11.8434 2.9609 11.7564 2.9609 11.6657C2.9609 11.5748 2.99759 11.4879 3.06272 11.4246C3.12784 11.3613 3.21573 11.3271 3.3065 11.3296H3.83543C3.9262 11.3271 4.01408 11.3613 4.07921 11.4246C4.14434 11.4879 4.18103 11.5748 4.18103 11.6657C4.18103 11.7564 4.14434 11.8434 4.07921 11.9067C4.01408 11.97 3.9262 12.0043 3.83543 12.0017H3.3065ZM0.904766 17.322C0.786876 17.3187 0.679281 17.2539 0.621327 17.1511C0.563289 17.0485 0.563289 16.9229 0.621327 16.8202C0.679284 16.7175 0.78687 16.6527 0.904766 16.6494H1.4337C1.55159 16.6527 1.6591 16.7175 1.71713 16.8202C1.77517 16.9229 1.77517 17.0485 1.71713 17.1511C1.6591 17.2539 1.55159 17.3186 1.4337 17.322H0.904766ZM0.904766 15.9918V15.9917C0.786876 15.9884 0.679281 15.9236 0.621327 15.8209C0.563289 15.7182 0.563289 15.5927 0.621327 15.4899C0.679284 15.3872 0.78687 15.3224 0.904766 15.3191H1.4337C1.55159 15.3224 1.6591 15.3872 1.71713 15.4899C1.77517 15.5927 1.77517 15.7182 1.71713 15.8209C1.6591 15.9236 1.55159 15.9884 1.4337 15.9917L0.904766 15.9918ZM0.904766 14.6613V14.6612C0.813998 14.6637 0.726033 14.6294 0.660983 14.5662C0.595856 14.5029 0.559087 14.4159 0.559087 14.3251C0.559087 14.2344 0.595856 14.1474 0.660983 14.0841C0.726029 14.0208 0.813994 13.9866 0.904766 13.9891H1.4337C1.52438 13.9866 1.61234 14.0208 1.67748 14.0841C1.74261 14.1474 1.77929 14.2344 1.77929 14.3251C1.77929 14.4159 1.74261 14.5029 1.67748 14.5662C1.61235 14.6294 1.52439 14.6637 1.4337 14.6612L0.904766 14.6613ZM0.904766 13.3312V13.3311C0.786876 13.3278 0.679281 13.263 0.621327 13.1603C0.563289 13.0577 0.563289 12.9321 0.621327 12.8294C0.679284 12.7267 0.78687 12.6619 0.904766 12.6586H1.4337C1.55159 12.6619 1.6591 12.7267 1.71713 12.8294C1.77517 12.932 1.77517 13.0577 1.71713 13.1603C1.6591 13.263 1.55159 13.3278 1.4337 13.3311L0.904766 13.3312ZM0.904766 12.0007V12.0006C0.813998 12.0032 0.726033 11.9689 0.660983 11.9057C0.595856 11.8423 0.559087 11.7554 0.559087 11.6646C0.559087 11.5738 0.595856 11.4869 0.660983 11.4235C0.726029 11.3602 0.813994 11.326 0.904766 11.3286H1.4337C1.52438 11.326 1.61234 11.3602 1.67748 11.4235C1.74261 11.4869 1.77929 11.5738 1.77929 11.6646C1.77929 11.7554 1.74261 11.8423 1.67748 11.9057C1.61235 11.9689 1.52439 12.0032 1.4337 12.0006L0.904766 12.0007ZM14.2452 2.60483H19.4294V8.10602H14.2452V2.60483ZM15.5106 7.18754H18.1639C18.2818 7.18424 18.3894 7.11936 18.4474 7.01672C18.5054 6.914 18.5054 6.78845 18.4474 6.68571C18.3894 6.58307 18.2818 6.51819 18.1639 6.51489H15.5106C15.3927 6.51819 15.2851 6.58307 15.2272 6.68571C15.1691 6.78843 15.1691 6.91398 15.2272 7.01672C15.2851 7.11936 15.3927 7.18424 15.5106 7.18754ZM15.5106 5.69198H18.1639C18.2818 5.68869 18.3894 5.6238 18.4474 5.52116C18.5054 5.41844 18.5054 5.29289 18.4474 5.19016C18.3894 5.08752 18.2818 5.02272 18.1639 5.01934H15.5106C15.3927 5.02272 15.2851 5.08752 15.2272 5.19016C15.1691 5.29288 15.1691 5.41843 15.2272 5.52116C15.2851 5.6238 15.3927 5.68868 15.5106 5.69198ZM15.5106 4.19618H18.1639C18.2818 4.1928 18.3894 4.128 18.4474 4.02536C18.5054 3.92264 18.5054 3.79709 18.4474 3.69435C18.3894 3.59163 18.2818 3.52683 18.1639 3.52353H15.5106C15.3927 3.52683 15.2851 3.59163 15.2272 3.69435C15.1691 3.79707 15.1691 3.92262 15.2272 4.02536C15.2851 4.128 15.3927 4.19279 15.5106 4.19618ZM11.2536 0.000105507V8.10627H13.5728V1.93226H16.4365V0L11.2536 0.000105507ZM14.5592 1.46632V1.46641C14.4413 1.46303 14.3337 1.39823 14.2758 1.29559C14.2177 1.19287 14.2177 1.06732 14.2758 0.964579C14.3337 0.86194 14.4413 0.797059 14.5592 0.793761H15.0881C15.1789 0.791205 15.267 0.8255 15.3321 0.888815C15.3973 0.952212 15.434 1.03919 15.434 1.13004C15.434 1.22098 15.3973 1.30795 15.3321 1.37127C15.267 1.43467 15.1789 1.46896 15.0881 1.46641L14.5592 1.46632ZM12.2362 7.22014C12.1181 7.21685 12.0106 7.15197 11.9525 7.04924C11.8944 6.94644 11.8944 6.8208 11.9525 6.718C12.0106 6.6152 12.1182 6.5504 12.2362 6.54702H12.7654C12.8834 6.5504 12.991 6.6152 13.0491 6.718C13.1071 6.82081 13.1071 6.94644 13.0491 7.04924C12.9909 7.15197 12.8833 7.21685 12.7654 7.22014H12.2362ZM12.2362 5.78056C12.116 5.78056 12.0049 5.7165 11.9449 5.61238C11.8848 5.50826 11.8848 5.38006 11.9449 5.27595C12.0049 5.17182 12.116 5.10777 12.2362 5.10777H12.7654C12.8856 5.10777 12.9966 5.17182 13.0567 5.27595C13.1168 5.38007 13.1168 5.50827 13.0567 5.61238C12.9966 5.7165 12.8856 5.78056 12.7654 5.78056H12.2362ZM12.2362 4.34098V4.34106C12.1183 4.33768 12.0107 4.27288 11.9527 4.17016C11.8947 4.06752 11.8947 3.94197 11.9527 3.83923C12.0107 3.73651 12.1183 3.67171 12.2362 3.66841H12.7654C12.8833 3.67171 12.9908 3.73651 13.0488 3.83923C13.1069 3.94195 13.1069 4.0675 13.0488 4.17016C12.9908 4.27288 12.8833 4.33768 12.7654 4.34106L12.2362 4.34098ZM12.2362 2.90272V2.9028C12.1183 2.89951 12.0107 2.83462 11.9527 2.73199C11.8947 2.62926 11.8947 2.50372 11.9527 2.40098C12.0107 2.29834 12.1183 2.23346 12.2362 2.23016H12.7654C12.8833 2.23346 12.9908 2.29834 13.0488 2.40098C13.1069 2.5037 13.1069 2.62925 13.0488 2.73199C12.9908 2.83462 12.8833 2.89951 12.7654 2.9028L12.2362 2.90272ZM12.2362 1.46314V1.46322C12.1183 1.45992 12.0107 1.39504 11.9527 1.2924C11.8947 1.18968 11.8947 1.06413 11.9527 0.961392C12.0107 0.858753 12.1183 0.793955 12.2362 0.790574H12.7654C12.8833 0.793954 12.9908 0.858753 13.0488 0.961392C13.1069 1.06411 13.1069 1.18966 13.0488 1.2924C12.9908 1.39504 12.8833 1.45992 12.7654 1.46322L12.2362 1.46314ZM20.8508 13.2922C20.7938 14.8854 20.3135 16.4345 19.4592 17.7804H16.6624C17.1669 16.3368 17.4354 14.8213 17.4576 13.2922H20.8508ZM18.9868 18.4534C17.6838 20.1493 15.8204 21.3268 13.7294 21.7755C14.6222 21.211 15.3572 20.4292 15.8654 19.5032C16.0633 19.1642 16.2404 18.8137 16.3959 18.4534L18.9868 18.4534ZM9.94379 21.7755C7.99803 21.3579 6.24516 20.3081 4.95861 18.7898H7.43041C7.54896 19.0386 7.67477 19.2766 7.80792 19.5037C8.31633 20.4296 9.0512 21.2114 9.94373 21.7761L9.94379 21.7755ZM3.33248 9.94751C3.51723 9.42541 3.74996 8.92153 4.0277 8.44239H6.90429C6.49654 9.70917 6.2676 11.0267 6.22391 12.3567H5.85713V9.94759L3.33248 9.94751ZM4.45805 7.76969H4.45796C5.76431 5.91116 7.72352 4.61367 9.94438 4.13586C9.05188 4.70084 8.31701 5.48269 7.80836 6.40843C7.55462 6.84505 7.33384 7.30003 7.14809 7.76961L4.45805 7.76969ZM12.1736 8.77844V12.6195H16.7856H16.7855C16.764 11.3168 16.5582 10.0236 16.1743 8.77844H12.1736ZM12.1736 13.2921V17.7803H15.9475C16.4811 16.3431 16.7644 14.825 16.7849 13.2921H12.1736ZM12.1736 18.4525V21.6186C13.3746 21.4747 14.4662 20.5635 15.2876 19.1641C15.4195 18.9392 15.5439 18.702 15.6608 18.4526L12.1736 18.4525ZM10.5799 4.56021C9.74444 4.94941 8.99127 5.71562 8.38604 6.74794V6.74786C8.19379 7.07754 8.02232 7.41893 7.8726 7.76997H10.5797L10.5799 4.56021ZM7.61149 8.44245C7.18106 9.70471 6.94002 11.0238 6.89623 12.3568H8.8495V12.6196H11.5003L11.5002 8.77851H10.58V8.44239L7.61149 8.44245ZM8.8495 17.7805H11.5003L11.5002 13.2924H8.84963L8.8495 17.7805ZM8.179 18.7893C8.24603 18.9175 8.31503 19.0425 8.38618 19.1641C9.20671 20.5635 10.2992 21.4747 11.5002 21.6186L11.5001 18.4533H8.84956V18.7892L8.179 18.7893Z" fill="white"/>
</g>
<defs>
<clipPath id="clip0_1759_2857">
<rect width="23.04" height="24" fill="white"/>
</clipPath>
</defs>
</svg>
