<svg width="20" height="14" viewBox="0 0 20 14" fill="none" xmlns="http://www.w3.org/2000/svg">
<path d="M6.00353 14C5.25828 14 4.71329 13.8074 4.36855 13.4221C4.02888 13.0418 3.80328 12.4791 3.69174 11.7338L2.60429 4.4943H17.3876L16.3077 11.7338C16.1962 12.474 15.968 13.0368 15.6233 13.4221C15.2836 13.8074 14.7386 14 13.9883 14H6.00353ZM2.24688 3.46008C1.81595 3.46008 1.49149 3.34094 1.27349 3.10266C1.06057 2.85932 0.954102 2.52471 0.954102 2.09886V1.36122C0.954102 0.935361 1.06817 0.603295 1.29631 0.365019C1.52444 0.121673 1.8413 0 2.24688 0H17.7526C18.1784 0 18.5004 0.121673 18.7184 0.365019C18.9364 0.603295 19.0454 0.935361 19.0454 1.36122V2.09886C19.0454 2.52471 18.9364 2.85932 18.7184 3.10266C18.5004 3.34094 18.1784 3.46008 17.7526 3.46008H2.24688ZM7.72216 11.8859C7.87932 11.8859 8.01874 11.8226 8.14041 11.6958L9.99593 9.84791L11.8514 11.6958C11.9072 11.7465 11.9706 11.7921 12.0416 11.8327C12.1125 11.8682 12.1911 11.8859 12.2773 11.8859C12.4395 11.8859 12.5815 11.8251 12.7032 11.7034C12.8248 11.5817 12.8857 11.4398 12.8857 11.2776C12.8857 11.1863 12.8654 11.1077 12.8248 11.0418C12.7893 10.9708 12.7462 10.9075 12.6955 10.8517L10.8476 8.9962L12.7032 7.13308C12.7589 7.06717 12.8045 7.0038 12.84 6.94297C12.8755 6.87706 12.8933 6.80355 12.8933 6.72243C12.8933 6.55513 12.8324 6.41318 12.7108 6.29658C12.5891 6.1749 12.4446 6.11407 12.2773 6.11407C12.1455 6.11407 12.0086 6.1749 11.8666 6.29658L9.99593 8.1597L8.13281 6.30418C8.07197 6.25349 8.0086 6.21293 7.9427 6.18251C7.88186 6.14702 7.80835 6.12928 7.72216 6.12928C7.55993 6.12928 7.41798 6.18758 7.29631 6.30418C7.17463 6.42079 7.1138 6.5602 7.1138 6.72243C7.1138 6.87452 7.17717 7.01394 7.30391 7.14068L9.14422 8.9962L7.30391 10.8593C7.17717 10.981 7.1138 11.1204 7.1138 11.2776C7.1138 11.4398 7.1721 11.5817 7.2887 11.7034C7.41038 11.8251 7.55486 11.8859 7.72216 11.8859Z" fill="#C7C7CC"/>
</svg>
