<svg width="25" height="25" viewBox="0 0 25 25" fill="none" xmlns="http://www.w3.org/2000/svg">
<g clip-path="url(#clip0_1759_2848)">
<path fill-rule="evenodd" clip-rule="evenodd" d="M7.93865 9.1564C7.81814 9.1564 7.70671 9.09094 7.64649 8.98479C7.58619 8.87854 7.58619 8.74773 7.64649 8.64157C7.70671 8.53542 7.81814 8.46996 7.93865 8.46996H11.1931C11.3136 8.46996 11.4251 8.53542 11.4854 8.64157C11.5456 8.74773 11.5456 8.87854 11.4854 8.98479C11.4251 9.09094 11.3136 9.1564 11.1931 9.1564H7.93865ZM3.4158 9.1564C3.29528 9.1564 3.18385 9.09094 3.12355 8.98479C3.06325 8.87854 3.06325 8.74773 3.12355 8.64157C3.18385 8.53542 3.29529 8.46996 3.4158 8.46996H6.07218C6.19279 8.46996 6.30413 8.53542 6.36443 8.64157C6.42474 8.74773 6.42473 8.87854 6.36443 8.98479C6.30413 9.09094 6.19278 9.1564 6.07218 9.1564H3.4158ZM3.4158 11.2971V11.297C3.29757 11.2936 3.18974 11.2275 3.13156 11.1227C3.07337 11.018 3.07337 10.89 3.13156 10.7852C3.18975 10.6804 3.29757 10.6144 3.4158 10.611H9.52458C9.64281 10.6144 9.75073 10.6804 9.80882 10.7852C9.867 10.89 9.867 11.018 9.80882 11.1227C9.75072 11.2275 9.64281 11.2936 9.52458 11.297L3.4158 11.2971ZM3.4158 13.6686V13.6685C3.29757 13.6651 3.18974 13.599 3.13156 13.4942C3.07337 13.3895 3.07337 13.2615 3.13156 13.1566C3.18975 13.0519 3.29757 12.9858 3.4158 12.9824H8.57239C8.66355 12.9798 8.7518 13.0147 8.81713 13.0794C8.88255 13.144 8.9194 13.2328 8.9194 13.3255C8.9194 13.4182 8.88255 13.507 8.81713 13.5716C8.7518 13.6362 8.66356 13.6711 8.57239 13.6685L3.4158 13.6686ZM3.4158 15.8096V15.8095C3.29757 15.8061 3.18974 15.7399 3.13156 15.6352C3.07338 15.5305 3.07337 15.4023 3.13156 15.2976C3.18975 15.1929 3.29757 15.1267 3.4158 15.1233H8.28554C8.37661 15.1207 8.46494 15.1557 8.53028 15.2203C8.59569 15.285 8.63254 15.3737 8.63254 15.4665C8.63254 15.5591 8.59569 15.6478 8.53028 15.7125C8.46495 15.7771 8.37661 15.8121 8.28554 15.8095L3.4158 15.8096ZM3.4158 18.1811V18.181C3.29757 18.1776 3.18974 18.1114 3.13156 18.0067C3.07338 17.902 3.07337 17.7738 3.13156 17.6691C3.18975 17.5644 3.29757 17.4982 3.4158 17.4948H8.53132C8.64954 17.4982 8.75746 17.5644 8.81555 17.6691C8.87374 17.7738 8.87374 17.902 8.81555 18.0067C8.75745 18.1114 8.64954 18.1776 8.53132 18.181L3.4158 18.1811ZM3.4158 22.9243V22.9242C3.29528 22.9242 3.18385 22.8587 3.12355 22.7526C3.06325 22.6463 3.06325 22.5155 3.12355 22.4094C3.18385 22.3032 3.29529 22.2377 3.4158 22.2377H11.259C11.3796 22.2377 11.491 22.3032 11.5513 22.4094C11.6116 22.5155 11.6116 22.6463 11.5513 22.7526C11.491 22.8587 11.3796 22.9242 11.259 22.9242L3.4158 22.9243ZM1.47697 5.34262H3.14912H3.14903C3.24865 5.34181 3.34387 5.3012 3.41431 5.22956C3.48466 5.15792 3.52451 5.061 3.52522 4.95977V3.25947L1.47697 5.34262ZM2.8961 20.8663L2.89336 20.8638L3.24549 20.5057C3.15979 20.4545 3.10064 20.3674 3.08389 20.2677C3.06714 20.1681 3.09447 20.066 3.15856 19.9887C3.22265 19.9114 3.31698 19.8668 3.41634 19.8667H9.43102C9.52218 19.8641 9.61043 19.8991 9.67585 19.9637C9.74118 20.0284 9.77803 20.1171 9.77803 20.2097C9.77803 20.3025 9.74118 20.3912 9.67585 20.4559C9.61043 20.5205 9.52218 20.5555 9.43102 20.5529H3.41522C3.35641 20.553 3.29858 20.5375 3.24753 20.5077L2.89541 20.8658L2.8961 20.8663ZM22.8156 10.303L22.8155 10.3029C21.5956 9.06199 19.9901 8.28974 18.273 8.11769C16.556 7.94563 14.8333 8.38442 13.3986 9.3593C11.9638 10.3342 10.9058 11.785 10.405 13.4642C9.90406 15.1434 9.99116 16.9473 10.6514 18.5687C11.3117 20.1899 12.5043 21.5282 14.0259 22.3554C15.5477 23.1826 17.3043 23.4478 18.9968 23.1054C20.6892 22.7631 22.2124 21.8346 23.307 20.4783C24.4016 19.1218 25 17.4212 25 15.6664C25.0013 14.6702 24.809 13.6835 24.4342 12.7631C24.0593 11.8427 23.5094 11.0067 22.8157 10.303L22.8156 10.303ZM17.325 23.9337C15.207 23.8755 13.1951 22.9788 11.7172 21.4346C10.2394 19.8905 9.41248 17.8207 9.41248 15.6661C9.41248 13.5113 10.2394 11.4417 11.7172 9.89761C13.195 8.3535 15.2069 7.45681 17.325 7.39851V3.15682C17.3242 3.05559 17.2843 2.95867 17.2138 2.88712C17.1434 2.81549 17.0481 2.77496 16.9485 2.77424H4.20015V4.95951C4.19935 5.24284 4.08845 5.51433 3.89149 5.71462C3.69445 5.91492 3.42758 6.02781 3.14901 6.02852H1V24.375C1.00071 24.4763 1.04055 24.5732 1.11099 24.6448C1.18144 24.7165 1.27683 24.7571 1.37645 24.7578H16.9492C17.0488 24.7571 17.1441 24.7165 17.2145 24.6448C17.285 24.5732 17.3249 24.4763 17.3256 24.375V23.9343L17.325 23.9337ZM17.9996 7.40769V3.15682C17.9991 2.87349 17.8882 2.602 17.6911 2.40162C17.4942 2.20132 17.2271 2.08843 16.9486 2.0879H3.72283L2.68984 3.13846V1.14066C2.69054 1.03935 2.73048 0.942427 2.80092 0.870784C2.87136 0.799146 2.96666 0.758531 3.06629 0.757812H18.639C18.7386 0.75853 18.834 0.799146 18.9044 0.870784C18.9749 0.942422 19.0147 1.03935 19.0154 1.14066V7.53074C18.6799 7.46833 18.3407 7.42745 18.0001 7.40817L17.9996 7.40769ZM21.7305 11.4065C22.6996 12.3921 23.3027 13.6888 23.437 15.0758C23.5714 16.4628 23.2286 17.8542 22.4673 19.0131C21.7059 20.172 20.5729 21.0265 19.2615 21.4312C17.9501 21.8357 16.5413 21.7654 15.2752 21.2321C14.0091 20.6987 12.9638 19.7354 12.3179 18.5062C11.6719 17.2769 11.4649 15.8579 11.7323 14.491C11.9996 13.1241 12.7247 11.8937 13.784 11.0095C14.8435 10.1253 16.1716 9.64206 17.542 9.64206C18.32 9.64089 19.0906 9.79627 19.8095 10.0991C20.5283 10.4018 21.1812 10.8462 21.7306 11.4065L21.7305 11.4065ZM17.5419 8.95677C16.0154 8.95722 14.5364 9.4958 13.3565 10.481C12.1767 11.4661 11.3693 12.8366 11.0718 14.3593C10.7743 15.882 11.0052 17.4626 11.7251 18.8315C12.445 20.2004 13.6093 21.2732 15.0198 21.867C16.4302 22.4607 17.9994 22.5388 19.46 22.0878C20.9207 21.6368 22.1823 20.6848 23.0302 19.3938C23.878 18.1029 24.2595 16.553 24.1095 15.008C23.9595 13.4632 23.2876 12.0188 22.208 10.9215C21.5959 10.2975 20.8684 9.8028 20.0677 9.46566C19.2669 9.12853 18.4085 8.95568 17.542 8.95703L17.5419 8.95677ZM17.8534 15.3503L17.8533 15.3504C17.9502 15.4488 17.9965 15.5874 17.9786 15.7254C17.9608 15.8635 17.8808 15.9853 17.7623 16.0549C17.6437 16.1246 17.5001 16.1342 17.3736 16.0809C17.2471 16.0277 17.1521 15.9176 17.1166 15.7832C17.0812 15.6487 17.1092 15.505 17.1925 15.3946C17.2758 15.2841 17.405 15.2193 17.5419 15.2192C17.6586 15.219 17.7707 15.2662 17.853 15.3504L17.8534 15.3503ZM17.2034 11.777V11.7771C17.2007 11.6844 17.2351 11.5946 17.2987 11.5281C17.3622 11.4617 17.4495 11.4242 17.5407 11.4242C17.6318 11.4242 17.7191 11.4617 17.7826 11.5281C17.8462 11.5946 17.8805 11.6844 17.878 11.7771V14.5865C18.1381 14.6708 18.3588 14.849 18.4986 15.0875C18.6382 15.326 18.6872 15.6083 18.6363 15.881L20.1188 16.6964C20.2247 16.7542 20.2923 16.8652 20.296 16.9875C20.2996 17.1098 20.2388 17.2247 20.1366 17.2891C20.0343 17.3535 19.906 17.3574 19.8001 17.2995L18.3159 16.4815C18.0709 16.7217 17.7314 16.835 17.394 16.7889C17.0567 16.7429 16.7585 16.5427 16.5844 16.2452C16.4103 15.9478 16.3793 15.5858 16.5003 15.2623C16.6213 14.9387 16.8811 14.6892 17.2055 14.5846V11.7752L17.2034 11.777ZM17.878 10.6356V10.9786H17.2047V10.1856H17.8793V10.6348L17.878 10.6356ZM15.3593 11.1394L15.5266 11.4355L14.944 11.7759L14.7767 11.4798L14.7247 11.3881L14.5574 11.0918L15.1397 10.7514L15.307 11.0477L15.3593 11.1394ZM13.4263 12.854L13.7177 13.0256L13.3802 13.618L12.7075 13.2219L13.0449 12.6295L13.4262 12.854L13.4263 12.854ZM12.5949 15.3225H12.9324V16.0076H12.1535V15.3226L12.5949 15.3225ZM13.0905 17.8841L13.3817 17.7152L13.7165 18.3075L13.4251 18.4776L13.3349 18.5305L13.0438 18.7007L12.7091 18.1085L12.9998 17.9381L13.0903 17.8852L13.0905 17.8841ZM14.7772 19.8501L14.946 19.5541L15.5283 19.897L15.1394 20.5822L14.5571 20.239L14.7778 19.8512L14.7772 19.8501ZM17.2045 20.6957L17.2046 20.3537H17.8792V21.1458H17.2046V20.6969L17.2045 20.6957ZM19.7241 20.1941L19.5568 19.8978L20.1394 19.5574L20.3067 19.8537L20.3587 19.9454L20.526 20.2415L19.9435 20.5798L19.7762 20.2837L19.7241 20.1941ZM21.6576 18.4785L21.3662 18.3069L21.7037 17.7147L22.3765 18.1108L22.039 18.703L21.6577 18.4785L21.6576 18.4785ZM22.489 16.0099L22.1516 16.0098V15.3227H22.9305V16.0077L22.489 16.0099ZM21.9934 13.4484L21.7023 13.6186L21.3683 13.0242L21.6594 12.854L21.7499 12.8011L22.041 12.631L22.3757 13.2234L22.0844 13.3936L21.9942 13.4465L21.9934 13.4484ZM20.3067 11.4804L20.138 11.7764L19.5554 11.4332L19.9449 10.7493L20.5288 11.0923L20.3067 11.4804Z" fill="white"/>
</g>
<defs>
<clipPath id="clip0_1759_2848">
<rect width="24" height="24" fill="white" transform="translate(1 0.757812)"/>
</clipPath>
</defs>
</svg>
