<svg width="19" height="24" viewBox="0 0 19 24" fill="none" xmlns="http://www.w3.org/2000/svg">
<g clip-path="url(#clip0_1759_2859)">
<path fill-rule="evenodd" clip-rule="evenodd" d="M0 0V24H19.117V0H0ZM3.08207 1.03528H16.1772V2.46508H3.08207V1.03528ZM13.7723 3.45375H5.71609V4.40689H13.7723V3.45375ZM1.37132 7.42175H17.7268V8.18744H1.37132V7.42175ZM17.7268 9.29204H1.37132V10.0577H17.7268V9.29204ZM1.37132 11.2285H17.7268V11.9942H1.37132V11.2285ZM17.7268 13.0988H1.37132V13.8644H17.7268V13.0988ZM1.37132 14.8791H17.7268V15.6448H1.37132V14.8791ZM17.7268 16.7494H1.37132V17.5151H17.7268V16.7494ZM1.37132 18.6401H10.3686V19.4057H1.37132V18.6401ZM5.86993 21.7035H1.37132V22.4691H5.86993V21.7035Z" fill="white"/>
</g>
<defs>
<clipPath id="clip0_1759_2859">
<rect width="18.8571" height="24" fill="white"/>
</clipPath>
</defs>
</svg>
