<svg width="19" height="24" viewBox="0 0 19 24" fill="none" xmlns="http://www.w3.org/2000/svg">
<g clip-path="url(#clip0_1759_2818)">
<path fill-rule="evenodd" clip-rule="evenodd" d="M0 0V24H19V0H0ZM3.0625 1.03516H16.0775V2.46496H3.0625V1.03516ZM13.6868 3.45312H5.67987V4.40627H13.6868V3.45312ZM1.36328 7.42188H17.6187V8.18756H1.36328V7.42188ZM17.6187 9.29297H1.36328V10.0586H17.6187V9.29297ZM1.36328 11.2285H17.6187V11.9942H1.36328V11.2285ZM17.6187 13.0996H1.36328V13.8652H17.6187V13.0996ZM1.36328 14.8789H17.6187V15.6445H1.36328V14.8789ZM17.6187 16.75H1.36328V17.5156H17.6187V16.75ZM1.36328 18.6406H10.3055V19.4063H1.36328V18.6406ZM5.83437 21.7031H1.36328V22.4688H5.83437V21.7031Z" fill="#7A7A7A"/>
</g>
<defs>
<clipPath id="clip0_1759_2818">
<rect width="19" height="24" fill="white"/>
</clipPath>
</defs>
</svg>
