<svg width="34" height="24" viewBox="0 0 34 24" fill="none" xmlns="http://www.w3.org/2000/svg">
<g clip-path="url(#clip0_1759_2855)">
<path d="M5.08235 10.1647C6.95118 10.1647 8.47059 8.64529 8.47059 6.77647C8.47059 4.90765 6.95118 3.38824 5.08235 3.38824C3.21353 3.38824 1.69412 4.90765 1.69412 6.77647C1.69412 8.64529 3.21353 10.1647 5.08235 10.1647ZM28.8 10.1647C30.6688 10.1647 32.1882 8.64529 32.1882 6.77647C32.1882 4.90765 30.6688 3.38824 28.8 3.38824C26.9312 3.38824 25.4118 4.90765 25.4118 6.77647C25.4118 8.64529 26.9312 10.1647 28.8 10.1647ZM30.4941 11.8588H27.1059C26.1741 11.8588 25.3324 12.2347 24.7182 12.8435C26.8518 14.0135 28.3659 16.1259 28.6941 18.6353H32.1882C33.1253 18.6353 33.8824 17.8782 33.8824 16.9412V15.2471C33.8824 13.3782 32.3629 11.8588 30.4941 11.8588ZM16.9412 11.8588C20.2182 11.8588 22.8706 9.20647 22.8706 5.92941C22.8706 2.65235 20.2182 0 16.9412 0C13.6641 0 11.0118 2.65235 11.0118 5.92941C11.0118 9.20647 13.6641 11.8588 16.9412 11.8588ZM21.0071 13.5529H20.5676C19.4665 14.0824 18.2435 14.4 16.9412 14.4C15.6388 14.4 14.4212 14.0824 13.3147 13.5529H12.8753C9.50824 13.5529 6.77647 16.2847 6.77647 19.6518V21.1765C6.77647 22.5794 7.91471 23.7176 9.31765 23.7176H24.5647C25.9676 23.7176 27.1059 22.5794 27.1059 21.1765V19.6518C27.1059 16.2847 24.3741 13.5529 21.0071 13.5529ZM9.16412 12.8435C8.55 12.2347 7.70824 11.8588 6.77647 11.8588H3.38824C1.51941 11.8588 0 13.3782 0 15.2471V16.9412C0 17.8782 0.757059 18.6353 1.69412 18.6353H5.18294C5.51647 16.1259 7.03059 14.0135 9.16412 12.8435Z" fill="white"/>
</g>
<defs>
<clipPath id="clip0_1759_2855">
<rect width="33.8824" height="24" fill="white"/>
</clipPath>
</defs>
</svg>
