<svg width="24" height="24" viewBox="0 0 24 24" fill="none" xmlns="http://www.w3.org/2000/svg">
<g clip-path="url(#clip0_1759_2851)">
<mask id="path-1-inside-1_1759_2851" fill="white">
<path d="M7.13776 16.1997C7.47312 16.4076 7.74685 16.7221 7.90758 17.0821L8.57883 16.5308C8.65919 16.4564 8.78669 16.4548 8.86866 16.5324C11.5247 19.0321 15.6931 18.9775 18.2821 16.3883C20.9217 13.7488 20.9217 9.46855 18.2821 6.82741C15.6417 4.18787 11.3608 4.18787 8.71963 6.82741C6.9823 8.56633 6.29929 11.1447 7.02624 13.5609C7.21749 14.2 7.50301 14.7984 7.86464 15.3422C7.89356 15.4391 7.88767 15.5714 7.82071 15.6261L7.13776 16.1997ZM16.981 8.12865C18.902 10.0513 18.902 13.1659 16.981 15.0866C15.0583 17.0093 11.9437 17.0093 10.0214 15.0866C8.10034 13.1655 8.10034 10.0509 10.0214 8.12865C11.9436 6.20758 15.0582 6.20758 16.981 8.12865ZM13.5021 6.25956C16.4555 6.25956 18.8507 8.6543 18.8507 11.6081C18.8507 14.5631 16.4559 16.9578 13.5021 16.9578C10.5471 16.9578 8.15238 14.5631 8.15238 11.6081C8.15185 8.6543 10.5471 6.25956 13.5021 6.25956ZM16.1823 11.14C16.2386 11.462 16.2386 11.8188 16.1823 12.1423C16.1502 12.3293 16.2263 12.5141 16.3827 12.6239L16.8214 12.932C16.8471 12.9502 16.8546 12.9834 16.838 13.0123L16.3307 13.8915C16.3141 13.9188 16.282 13.9311 16.252 13.9172L15.7645 13.6911C15.5914 13.6107 15.3927 13.6381 15.2464 13.7597C15.0064 13.9616 14.7316 14.1213 14.437 14.2289C14.2564 14.2943 14.1364 14.4523 14.1182 14.6436L14.0711 15.1783C14.0679 15.2104 14.0422 15.2329 14.0106 15.2329H13.0189C12.9868 15.2329 12.9611 15.2099 12.9584 15.1783L12.9113 14.6436C12.8931 14.4523 12.7731 14.2943 12.5925 14.2289C12.2979 14.1213 12.0247 13.9616 11.7831 13.7597C11.6373 13.6381 11.4381 13.6107 11.265 13.6911L10.7775 13.9172C10.747 13.9311 10.7154 13.9188 10.6988 13.8915L10.1915 13.0123C10.1749 12.9834 10.1824 12.9502 10.2097 12.932L10.6468 12.6239C10.8033 12.5147 10.8793 12.3293 10.8472 12.1423C10.7909 11.8188 10.7909 11.462 10.8472 11.14C10.8793 10.9514 10.8032 10.7666 10.6468 10.6573L10.2097 10.3493C10.1824 10.3311 10.1749 10.2979 10.1915 10.2705L10.6988 9.39143C10.7154 9.36251 10.7475 9.35018 10.7775 9.36411L11.265 9.59018C11.4381 9.67054 11.6368 9.64322 11.7831 9.52161C12.0247 9.31965 12.2979 9.16161 12.5925 9.05393C12.7731 8.98697 12.893 8.82893 12.9113 8.63768L12.9584 8.10303C12.9616 8.07089 12.9873 8.04839 13.0189 8.04839H14.0106C14.0427 8.04839 14.0684 8.07089 14.0711 8.10303L14.1182 8.63768C14.1364 8.82893 14.2564 8.98696 14.437 9.05393C14.7316 9.16161 15.0064 9.31965 15.2464 9.52161C15.3922 9.64322 15.5909 9.67054 15.7645 9.59018L16.252 9.36411C16.2825 9.35018 16.3141 9.36251 16.3307 9.39143L16.838 10.2705C16.8546 10.2979 16.8471 10.3311 16.8214 10.3493L16.3827 10.6573C16.2263 10.7666 16.1502 10.952 16.1823 11.14ZM16.6045 11.0672C16.5997 11.0414 16.6077 11.0216 16.6286 11.0077L17.0673 10.6996C17.2736 10.5523 17.3346 10.2716 17.2088 10.0557L16.7063 9.1841C16.5755 8.9591 16.3115 8.86536 16.0731 8.97624L15.5856 9.20124C15.5614 9.21357 15.5416 9.21035 15.5218 9.19374C15.2422 8.95964 14.925 8.77589 14.5832 8.6516C14.5602 8.64249 14.5468 8.62588 14.5436 8.60017L14.4965 8.06714C14.4734 7.81482 14.2624 7.6209 14.0106 7.6209H13.0189C12.7666 7.6209 12.5556 7.81536 12.5331 8.06714L12.4859 8.60017C12.4827 8.62588 12.4693 8.64249 12.4463 8.6516C12.1045 8.77588 11.7873 8.95964 11.5077 9.19374C11.4879 9.21035 11.4681 9.21357 11.444 9.20124L10.9565 8.97624C10.7181 8.86535 10.454 8.95964 10.3232 9.1841L9.82076 10.0557C9.69647 10.2716 9.7554 10.5523 9.96326 10.6996L10.4004 11.0077C10.4218 11.0211 10.4293 11.0409 10.4245 11.0672C10.3608 11.4315 10.3608 11.8493 10.4245 12.2136C10.4288 12.2393 10.4213 12.2591 10.4004 12.2741L9.96326 12.5822C9.7554 12.7279 9.69594 13.0091 9.82076 13.2261L10.3232 14.0961C10.454 14.3211 10.7181 14.4148 10.9565 14.3039L11.444 14.0789C11.4681 14.0682 11.4879 14.0698 11.5077 14.088C11.7873 14.3205 12.1045 14.5043 12.4463 14.6286C12.4693 14.6377 12.4827 14.6543 12.4859 14.68L12.5331 15.213C12.5561 15.4653 12.7672 15.6593 13.0189 15.6593H14.0106C14.2629 15.6593 14.4739 15.4648 14.4965 15.213L14.5436 14.68C14.5468 14.6543 14.5602 14.6377 14.5832 14.6286C14.925 14.5043 15.2422 14.3205 15.5218 14.088C15.5416 14.0698 15.5614 14.0682 15.5856 14.0789L16.0731 14.3039C16.3115 14.4148 16.5755 14.3205 16.7063 14.0961L17.2088 13.2261C17.3346 13.0091 17.2741 12.7279 17.0673 12.5822L16.6286 12.2741C16.6072 12.2591 16.5997 12.2393 16.6045 12.2136C16.6682 11.8493 16.6682 11.4314 16.6045 11.0672ZM19.5016 6.49161C19.2209 6.49161 19.2209 6.06357 19.5016 6.06357H20.9427C21.2234 6.06357 21.2234 6.49161 20.9427 6.49161H19.5016ZM6.05956 6.49161C5.77885 6.49161 5.77885 6.06357 6.05956 6.06357H7.50064C7.78134 6.06357 7.78134 6.49161 7.50064 6.49161H6.05956ZM6.05956 2.41595C5.77885 2.41595 5.77885 1.98791 6.05956 1.98791H20.9428C21.2235 1.98791 21.2235 2.41595 20.9428 2.41595H6.05956ZM13.5172 20.7696C13.2348 20.7696 13.2348 20.3415 13.5172 20.3415H20.9428C21.2235 20.3415 21.2235 20.7696 20.9428 20.7696H13.5172ZM17.2303 18.7312C16.948 18.7312 16.948 18.3031 17.2303 18.3031H20.9434C21.2242 18.3031 21.2242 18.7312 20.9434 18.7312H17.2303ZM6.22093 19.576L4.44557 17.4696L0.506374 20.7797C-0.885946 21.9492 0.887265 24.0552 2.28333 22.8846L6.22093 19.576ZM4.77184 17.1963L6.5472 19.3027L7.12738 18.8152C8.5197 17.6458 6.74489 15.5398 5.35042 16.7104L4.77184 17.1963ZM3.98219 2.41598H0.761391C0.348362 2.41598 0.00977942 2.75454 0.00977942 3.16759V6.38839C0.00977942 6.80142 0.348339 7.14 0.761391 7.14H3.98219C4.39522 7.14 4.7338 6.80144 4.7338 6.38839V3.16759C4.73434 2.75456 4.39524 2.41598 3.98219 2.41598ZM3.98219 9.61552H0.761391C0.348362 9.61552 0.00977942 9.95408 0.00977942 10.3687V13.5879C0.00977942 14.0026 0.348339 14.3395 0.761391 14.3395H3.98219C4.39522 14.3395 4.7338 14.0026 4.7338 13.5879V10.3687C4.73434 9.95408 4.39524 9.61552 3.98219 9.61552ZM3.75291 14.768V17.4921L5.07558 16.3821C5.61024 15.9342 6.1888 15.8539 6.69451 16.0023L7.40379 15.4162C5.63165 12.5856 6.04898 8.89392 8.41844 6.52501C9.56166 5.38126 11.0879 4.62055 12.7887 4.45394H6.06004C5.77933 4.45394 5.77933 4.0259 6.06004 4.0259H20.9432C21.2239 4.0259 21.2239 4.45394 20.9432 4.45394H14.2146C17.8664 4.81394 20.6914 7.89486 20.6914 11.6078C20.6914 15.579 17.4722 18.7982 13.5026 18.7982C11.7165 18.7982 10.0253 18.1408 8.71604 16.9714L8.04157 17.5275C8.13425 18.0771 7.9655 18.6696 7.40087 19.1432L3.84589 22.1304C4.07089 22.7695 4.67785 23.2163 5.37643 23.2163H21.6279C22.5225 23.2163 23.2495 22.4861 23.2495 21.5915V1.62482C23.2495 0.730172 22.522 0 21.6279 0H5.37643C4.48071 0 3.75321 0.730172 3.75321 1.62482V1.9875H3.98249C4.63232 1.9875 5.16212 2.51733 5.16212 3.16713V6.38793C5.16212 7.03776 4.63229 7.56811 3.98249 7.56811H3.75321V9.18704H3.98249C4.63232 9.18704 5.16212 9.71687 5.16212 10.3683V13.5875C5.16212 14.2373 4.63229 14.7671 3.98249 14.7671L3.75291 14.768ZM1.23405 4.72432C1.0412 4.52075 1.35084 4.2277 1.5437 4.43129L2.17101 5.09504L3.20066 4.00647C3.39352 3.80129 3.70315 4.09433 3.51031 4.2995L2.32585 5.55093C2.24067 5.64039 2.09978 5.64039 2.0162 5.55093L1.23405 4.72432ZM1.23405 11.9239C1.0412 11.7203 1.35084 11.4272 1.5437 11.6324L2.17101 12.2946L3.20066 11.206C3.39352 11.0024 3.70315 11.2955 3.51031 11.499L2.32585 12.7521C2.24067 12.8399 2.09978 12.8399 2.0162 12.7521L1.23405 11.9239ZM14.6199 10.5358C14.0124 9.92992 13.0175 9.92992 12.4106 10.5358C11.8047 11.1433 11.8047 12.1381 12.4106 12.7451C13.0181 13.351 14.0129 13.351 14.6199 12.7451C15.2258 12.1376 15.2258 11.1433 14.6199 10.5358ZM14.3161 10.8396C14.7565 11.2799 14.7565 12.0015 14.3161 12.4419C13.8774 12.8823 13.1542 12.8823 12.7138 12.4419C12.2734 12.0015 12.2734 11.2799 12.7138 10.8396C13.1547 10.3992 13.8774 10.3992 14.3161 10.8396Z"/>
</mask>
<path d="M7.13776 16.1997C7.47312 16.4076 7.74685 16.7221 7.90758 17.0821L8.57883 16.5308C8.65919 16.4564 8.78669 16.4548 8.86866 16.5324C11.5247 19.0321 15.6931 18.9775 18.2821 16.3883C20.9217 13.7488 20.9217 9.46855 18.2821 6.82741C15.6417 4.18787 11.3608 4.18787 8.71963 6.82741C6.9823 8.56633 6.29929 11.1447 7.02624 13.5609C7.21749 14.2 7.50301 14.7984 7.86464 15.3422C7.89356 15.4391 7.88767 15.5714 7.82071 15.6261L7.13776 16.1997ZM16.981 8.12865C18.902 10.0513 18.902 13.1659 16.981 15.0866C15.0583 17.0093 11.9437 17.0093 10.0214 15.0866C8.10034 13.1655 8.10034 10.0509 10.0214 8.12865C11.9436 6.20758 15.0582 6.20758 16.981 8.12865ZM13.5021 6.25956C16.4555 6.25956 18.8507 8.6543 18.8507 11.6081C18.8507 14.5631 16.4559 16.9578 13.5021 16.9578C10.5471 16.9578 8.15238 14.5631 8.15238 11.6081C8.15185 8.6543 10.5471 6.25956 13.5021 6.25956ZM16.1823 11.14C16.2386 11.462 16.2386 11.8188 16.1823 12.1423C16.1502 12.3293 16.2263 12.5141 16.3827 12.6239L16.8214 12.932C16.8471 12.9502 16.8546 12.9834 16.838 13.0123L16.3307 13.8915C16.3141 13.9188 16.282 13.9311 16.252 13.9172L15.7645 13.6911C15.5914 13.6107 15.3927 13.6381 15.2464 13.7597C15.0064 13.9616 14.7316 14.1213 14.437 14.2289C14.2564 14.2943 14.1364 14.4523 14.1182 14.6436L14.0711 15.1783C14.0679 15.2104 14.0422 15.2329 14.0106 15.2329H13.0189C12.9868 15.2329 12.9611 15.2099 12.9584 15.1783L12.9113 14.6436C12.8931 14.4523 12.7731 14.2943 12.5925 14.2289C12.2979 14.1213 12.0247 13.9616 11.7831 13.7597C11.6373 13.6381 11.4381 13.6107 11.265 13.6911L10.7775 13.9172C10.747 13.9311 10.7154 13.9188 10.6988 13.8915L10.1915 13.0123C10.1749 12.9834 10.1824 12.9502 10.2097 12.932L10.6468 12.6239C10.8033 12.5147 10.8793 12.3293 10.8472 12.1423C10.7909 11.8188 10.7909 11.462 10.8472 11.14C10.8793 10.9514 10.8032 10.7666 10.6468 10.6573L10.2097 10.3493C10.1824 10.3311 10.1749 10.2979 10.1915 10.2705L10.6988 9.39143C10.7154 9.36251 10.7475 9.35018 10.7775 9.36411L11.265 9.59018C11.4381 9.67054 11.6368 9.64322 11.7831 9.52161C12.0247 9.31965 12.2979 9.16161 12.5925 9.05393C12.7731 8.98697 12.893 8.82893 12.9113 8.63768L12.9584 8.10303C12.9616 8.07089 12.9873 8.04839 13.0189 8.04839H14.0106C14.0427 8.04839 14.0684 8.07089 14.0711 8.10303L14.1182 8.63768C14.1364 8.82893 14.2564 8.98696 14.437 9.05393C14.7316 9.16161 15.0064 9.31965 15.2464 9.52161C15.3922 9.64322 15.5909 9.67054 15.7645 9.59018L16.252 9.36411C16.2825 9.35018 16.3141 9.36251 16.3307 9.39143L16.838 10.2705C16.8546 10.2979 16.8471 10.3311 16.8214 10.3493L16.3827 10.6573C16.2263 10.7666 16.1502 10.952 16.1823 11.14ZM16.6045 11.0672C16.5997 11.0414 16.6077 11.0216 16.6286 11.0077L17.0673 10.6996C17.2736 10.5523 17.3346 10.2716 17.2088 10.0557L16.7063 9.1841C16.5755 8.9591 16.3115 8.86536 16.0731 8.97624L15.5856 9.20124C15.5614 9.21357 15.5416 9.21035 15.5218 9.19374C15.2422 8.95964 14.925 8.77589 14.5832 8.6516C14.5602 8.64249 14.5468 8.62588 14.5436 8.60017L14.4965 8.06714C14.4734 7.81482 14.2624 7.6209 14.0106 7.6209H13.0189C12.7666 7.6209 12.5556 7.81536 12.5331 8.06714L12.4859 8.60017C12.4827 8.62588 12.4693 8.64249 12.4463 8.6516C12.1045 8.77588 11.7873 8.95964 11.5077 9.19374C11.4879 9.21035 11.4681 9.21357 11.444 9.20124L10.9565 8.97624C10.7181 8.86535 10.454 8.95964 10.3232 9.1841L9.82076 10.0557C9.69647 10.2716 9.7554 10.5523 9.96326 10.6996L10.4004 11.0077C10.4218 11.0211 10.4293 11.0409 10.4245 11.0672C10.3608 11.4315 10.3608 11.8493 10.4245 12.2136C10.4288 12.2393 10.4213 12.2591 10.4004 12.2741L9.96326 12.5822C9.7554 12.7279 9.69594 13.0091 9.82076 13.2261L10.3232 14.0961C10.454 14.3211 10.7181 14.4148 10.9565 14.3039L11.444 14.0789C11.4681 14.0682 11.4879 14.0698 11.5077 14.088C11.7873 14.3205 12.1045 14.5043 12.4463 14.6286C12.4693 14.6377 12.4827 14.6543 12.4859 14.68L12.5331 15.213C12.5561 15.4653 12.7672 15.6593 13.0189 15.6593H14.0106C14.2629 15.6593 14.4739 15.4648 14.4965 15.213L14.5436 14.68C14.5468 14.6543 14.5602 14.6377 14.5832 14.6286C14.925 14.5043 15.2422 14.3205 15.5218 14.088C15.5416 14.0698 15.5614 14.0682 15.5856 14.0789L16.0731 14.3039C16.3115 14.4148 16.5755 14.3205 16.7063 14.0961L17.2088 13.2261C17.3346 13.0091 17.2741 12.7279 17.0673 12.5822L16.6286 12.2741C16.6072 12.2591 16.5997 12.2393 16.6045 12.2136C16.6682 11.8493 16.6682 11.4314 16.6045 11.0672ZM19.5016 6.49161C19.2209 6.49161 19.2209 6.06357 19.5016 6.06357H20.9427C21.2234 6.06357 21.2234 6.49161 20.9427 6.49161H19.5016ZM6.05956 6.49161C5.77885 6.49161 5.77885 6.06357 6.05956 6.06357H7.50064C7.78134 6.06357 7.78134 6.49161 7.50064 6.49161H6.05956ZM6.05956 2.41595C5.77885 2.41595 5.77885 1.98791 6.05956 1.98791H20.9428C21.2235 1.98791 21.2235 2.41595 20.9428 2.41595H6.05956ZM13.5172 20.7696C13.2348 20.7696 13.2348 20.3415 13.5172 20.3415H20.9428C21.2235 20.3415 21.2235 20.7696 20.9428 20.7696H13.5172ZM17.2303 18.7312C16.948 18.7312 16.948 18.3031 17.2303 18.3031H20.9434C21.2242 18.3031 21.2242 18.7312 20.9434 18.7312H17.2303ZM6.22093 19.576L4.44557 17.4696L0.506374 20.7797C-0.885946 21.9492 0.887265 24.0552 2.28333 22.8846L6.22093 19.576ZM4.77184 17.1963L6.5472 19.3027L7.12738 18.8152C8.5197 17.6458 6.74489 15.5398 5.35042 16.7104L4.77184 17.1963ZM3.98219 2.41598H0.761391C0.348362 2.41598 0.00977942 2.75454 0.00977942 3.16759V6.38839C0.00977942 6.80142 0.348339 7.14 0.761391 7.14H3.98219C4.39522 7.14 4.7338 6.80144 4.7338 6.38839V3.16759C4.73434 2.75456 4.39524 2.41598 3.98219 2.41598ZM3.98219 9.61552H0.761391C0.348362 9.61552 0.00977942 9.95408 0.00977942 10.3687V13.5879C0.00977942 14.0026 0.348339 14.3395 0.761391 14.3395H3.98219C4.39522 14.3395 4.7338 14.0026 4.7338 13.5879V10.3687C4.73434 9.95408 4.39524 9.61552 3.98219 9.61552ZM3.75291 14.768V17.4921L5.07558 16.3821C5.61024 15.9342 6.1888 15.8539 6.69451 16.0023L7.40379 15.4162C5.63165 12.5856 6.04898 8.89392 8.41844 6.52501C9.56166 5.38126 11.0879 4.62055 12.7887 4.45394H6.06004C5.77933 4.45394 5.77933 4.0259 6.06004 4.0259H20.9432C21.2239 4.0259 21.2239 4.45394 20.9432 4.45394H14.2146C17.8664 4.81394 20.6914 7.89486 20.6914 11.6078C20.6914 15.579 17.4722 18.7982 13.5026 18.7982C11.7165 18.7982 10.0253 18.1408 8.71604 16.9714L8.04157 17.5275C8.13425 18.0771 7.9655 18.6696 7.40087 19.1432L3.84589 22.1304C4.07089 22.7695 4.67785 23.2163 5.37643 23.2163H21.6279C22.5225 23.2163 23.2495 22.4861 23.2495 21.5915V1.62482C23.2495 0.730172 22.522 0 21.6279 0H5.37643C4.48071 0 3.75321 0.730172 3.75321 1.62482V1.9875H3.98249C4.63232 1.9875 5.16212 2.51733 5.16212 3.16713V6.38793C5.16212 7.03776 4.63229 7.56811 3.98249 7.56811H3.75321V9.18704H3.98249C4.63232 9.18704 5.16212 9.71687 5.16212 10.3683V13.5875C5.16212 14.2373 4.63229 14.7671 3.98249 14.7671L3.75291 14.768ZM1.23405 4.72432C1.0412 4.52075 1.35084 4.2277 1.5437 4.43129L2.17101 5.09504L3.20066 4.00647C3.39352 3.80129 3.70315 4.09433 3.51031 4.2995L2.32585 5.55093C2.24067 5.64039 2.09978 5.64039 2.0162 5.55093L1.23405 4.72432ZM1.23405 11.9239C1.0412 11.7203 1.35084 11.4272 1.5437 11.6324L2.17101 12.2946L3.20066 11.206C3.39352 11.0024 3.70315 11.2955 3.51031 11.499L2.32585 12.7521C2.24067 12.8399 2.09978 12.8399 2.0162 12.7521L1.23405 11.9239ZM14.6199 10.5358C14.0124 9.92992 13.0175 9.92992 12.4106 10.5358C11.8047 11.1433 11.8047 12.1381 12.4106 12.7451C13.0181 13.351 14.0129 13.351 14.6199 12.7451C15.2258 12.1376 15.2258 11.1433 14.6199 10.5358ZM14.3161 10.8396C14.7565 11.2799 14.7565 12.0015 14.3161 12.4419C13.8774 12.8823 13.1542 12.8823 12.7138 12.4419C12.2734 12.0015 12.2734 11.2799 12.7138 10.8396C13.1547 10.3992 13.8774 10.3992 14.3161 10.8396Z" fill="white" stroke="#1C1D1F" stroke-width="0.6" mask="url(#path-1-inside-1_1759_2851)"/>
</g>
<defs>
<clipPath id="clip0_1759_2851">
<rect width="24" height="24" fill="white"/>
</clipPath>
</defs>
</svg>
