<svg width="12" height="13" viewBox="0 0 12 13" fill="none" xmlns="http://www.w3.org/2000/svg">
<path id="&#244;&#128;&#129;&#163;" d="M6 12.5C5.18039 12.5 4.40784 12.3431 3.68235 12.0294C2.96078 11.7157 2.32353 11.2824 1.77059 10.7294C1.21765 10.1765 0.784314 9.53922 0.470588 8.81765C0.156863 8.09216 0 7.31961 0 6.5C0 5.68039 0.156863 4.9098 0.470588 4.18824C0.784314 3.46275 1.21569 2.82353 1.76471 2.27059C2.31765 1.71765 2.9549 1.28431 3.67647 0.970588C4.40196 0.656863 5.17451 0.5 5.99412 0.5C6.81373 0.5 7.58627 0.656863 8.31176 0.970588C9.03726 1.28431 9.67647 1.71765 10.2294 2.27059C10.7824 2.82353 11.2157 3.46275 11.5294 4.18824C11.8431 4.9098 12 5.68039 12 6.5C12 7.31961 11.8431 8.09216 11.5294 8.81765C11.2157 9.53922 10.7824 10.1765 10.2294 10.7294C9.67647 11.2824 9.03726 11.7157 8.31176 12.0294C7.5902 12.3431 6.81961 12.5 6 12.5ZM5.34118 9.37059C5.44314 9.37059 5.53529 9.34706 5.61765 9.3C5.7 9.25294 5.77255 9.18235 5.83529 9.08824L8.6 4.72941C8.63529 4.67059 8.66863 4.60784 8.7 4.54118C8.73137 4.47451 8.74706 4.40784 8.74706 4.34118C8.74706 4.20392 8.69608 4.09608 8.59412 4.01765C8.49216 3.93529 8.37843 3.89412 8.25294 3.89412C8.08039 3.89412 7.93922 3.98431 7.82941 4.16471L5.31765 8.2L4.12353 6.65882C4.04902 6.56078 3.97647 6.49412 3.90588 6.45882C3.83922 6.42353 3.76275 6.40588 3.67647 6.40588C3.54314 6.40588 3.43137 6.4549 3.34118 6.55294C3.25098 6.64706 3.20588 6.76078 3.20588 6.89412C3.20588 6.96078 3.21765 7.02745 3.24118 7.09412C3.26863 7.15686 3.30392 7.21765 3.34706 7.27647L4.82353 9.08824C4.90196 9.1902 4.98235 9.26274 5.06471 9.30588C5.14706 9.34902 5.23922 9.37059 5.34118 9.37059Z" fill="#03B245"/>
</svg>
