<svg width="20" height="22" viewBox="0 0 20 22" fill="none" xmlns="http://www.w3.org/2000/svg">
<g opacity="0.4" clip-path="url(#clip0_1759_2886)">
<path d="M17.6945 22L7.79443 22C7.21095 22 6.65137 21.7682 6.23878 21.3556C5.8262 20.943 5.59441 20.3835 5.59441 19.8V18.7C5.59441 18.4082 5.71031 18.1284 5.9166 17.9221C6.12289 17.7159 6.40268 17.6 6.69442 17.6C6.98616 17.6 7.26595 17.7159 7.47225 17.9221C7.67854 18.1284 7.79443 18.4082 7.79443 18.7V19.8L17.6945 19.8L17.6945 2.19984L7.79443 2.19984V3.29984C7.79443 3.59159 7.67854 3.87138 7.47225 4.07767C7.26595 4.28396 6.98616 4.39985 6.69442 4.39985C6.40268 4.39985 6.12289 4.28396 5.9166 4.07767C5.71031 3.87138 5.59441 3.59159 5.59441 3.29984V2.19984C5.59441 1.61635 5.8262 1.05677 6.23878 0.644188C6.65137 0.231605 7.21095 -0.000182748 7.79443 -0.000182748L17.6945 -0.000182748C18.278 -0.000182748 18.8376 0.231605 19.2502 0.644188C19.6627 1.05677 19.8945 1.61635 19.8945 2.19984L19.8945 19.8C19.8945 20.3835 19.6627 20.943 19.2502 21.3556C18.8376 21.7682 18.278 22 17.6945 22V22Z" fill="white"/>
<path d="M5.81996 6.27509C5.39096 5.84608 4.69795 5.84608 4.26895 6.27509L0.322115 10.2219C0.115895 10.4282 4.61786e-05 10.7079 4.61786e-05 10.9996C4.61786e-05 11.2913 0.115895 11.571 0.322115 11.7773L4.26895 15.7242C4.47805 15.9132 4.75177 16.0146 5.03353 16.0075C5.31529 16.0003 5.58355 15.8852 5.78284 15.6859C5.98214 15.4867 6.09725 15.2184 6.10436 14.9366C6.11147 14.6549 6.01005 14.3812 5.82106 14.1721L3.75744 12.0996L13.2945 12.0996C13.5863 12.0996 13.8661 11.9837 14.0723 11.7774C14.2786 11.5712 14.3945 11.2914 14.3945 10.9996C14.3945 10.7079 14.2786 10.4281 14.0723 10.2218C13.8661 10.0155 13.5863 9.89962 13.2945 9.89962H3.75744L5.82106 7.8272C6.02639 7.62105 6.14159 7.34188 6.14138 7.05092C6.14118 6.75995 6.02559 6.48095 5.81996 6.27509Z" fill="white"/>
</g>
<defs>
<clipPath id="clip0_1759_2886">
<rect width="20" height="22" fill="white"/>
</clipPath>
</defs>
</svg>
