<svg width="22" height="24" viewBox="0 0 22 24" fill="none" xmlns="http://www.w3.org/2000/svg">
<g clip-path="url(#clip0_1759_2879)">
<path d="M19.3031 24L8.50302 24C7.86649 24 7.25604 23.7471 6.80595 23.2971C6.35585 22.847 6.103 22.2365 6.103 21.6V20.4C6.103 20.0817 6.22942 19.7765 6.45447 19.5514C6.67951 19.3264 6.98474 19.2 7.30301 19.2C7.62127 19.2 7.92649 19.3264 8.15154 19.5514C8.37659 19.7765 8.50302 20.0817 8.50302 20.4V21.6L19.3031 21.6L19.3031 2.39982L8.50302 2.39982V3.59983C8.50302 3.91809 8.37659 4.22332 8.15154 4.44837C7.92649 4.67341 7.62127 4.79984 7.30301 4.79984C6.98474 4.79984 6.67951 4.67341 6.45447 4.44837C6.22942 4.22332 6.103 3.91809 6.103 3.59983V2.39982C6.103 1.7633 6.35585 1.15284 6.80595 0.70275C7.25604 0.252659 7.86649 -0.000199795 8.50302 -0.000199795L19.3031 -0.000199795C19.9396 -0.000199795 20.5501 0.252659 21.0002 0.70275C21.4503 1.15284 21.7031 1.7633 21.7031 2.39982L21.7031 21.6C21.7031 22.2365 21.4503 22.847 21.0002 23.2971C20.5501 23.7471 19.9396 24 19.3031 24V24Z" fill="#7A7A7A"/>
<path d="M6.34905 6.84537C5.88104 6.37737 5.12504 6.37737 4.65703 6.84537L0.351398 11.151C0.126431 11.376 5.00931e-05 11.6812 5.00931e-05 11.9994C5.00931e-05 12.3176 0.126431 12.6228 0.351398 12.8478L4.65703 17.1535C4.88514 17.3596 5.18375 17.4703 5.49112 17.4625C5.7985 17.4547 6.09114 17.3292 6.30856 17.1118C6.52597 16.8944 6.65154 16.6017 6.6593 16.2943C6.66706 15.987 6.55642 15.6884 6.35025 15.4602L4.09903 13.1994L14.5031 13.1994C14.8214 13.1994 15.1266 13.073 15.3516 12.8479C15.5767 12.6229 15.7031 12.3177 15.7031 11.9994C15.7031 11.6812 15.5767 11.3759 15.3516 11.1509C15.1266 10.9258 14.8214 10.7994 14.5031 10.7994L4.09903 10.7994L6.35025 8.53858C6.57425 8.31369 6.69992 8.00915 6.69969 7.69173C6.69947 7.37431 6.57337 7.06994 6.34905 6.84537Z" fill="#7A7A7A"/>
</g>
<defs>
<clipPath id="clip0_1759_2879">
<rect width="21.8182" height="24" fill="white"/>
</clipPath>
</defs>
</svg>
