<svg width="24" height="24" viewBox="0 0 24 24" fill="none" xmlns="http://www.w3.org/2000/svg">
<g clip-path="url(#clip0_1759_2842)">
<path d="M22.0489 0.000100321H1.93347C1.4216 0.000100321 1 0.421705 1 0.933574V23.0665C1 23.5784 1.4216 24 1.93347 24H22.0489C22.5607 24 22.9823 23.5784 22.9823 23.0665V0.933574C22.9823 0.421605 22.5607 0 22.0489 0V0.000100321ZM11.9912 1.98762C13.4968 1.98762 14.7314 3.22223 14.7314 4.7279C14.7314 5.48072 14.4303 6.14315 13.9485 6.62506C13.7076 6.05289 13.2258 5.63128 12.6536 5.42054C13.0451 5.1796 13.3161 4.75811 13.3161 4.24611C13.3161 3.49329 12.7138 2.86095 11.9309 2.86095C11.148 2.86095 10.5457 3.46321 10.5457 4.24611C10.5457 4.75798 10.8469 5.20968 11.2685 5.45063C10.6963 5.66138 10.2446 6.08297 10.0339 6.65514C9.55208 6.14317 9.25095 5.48072 9.25095 4.7279C9.25095 3.19216 10.4555 1.98762 11.9912 1.98762H11.9912ZM14.069 20.7178H10.0339V20.4769H14.069V20.7178ZM17.803 19.3327H6.17941V17.5259H17.803V19.3327ZM17.8632 15.5083H6.05892V13.1897H17.8632V15.5083ZM17.8632 12.5874H6.05892V10.2687H17.8632V12.5874Z" fill="#7A7A7A"/>
</g>
<defs>
<clipPath id="clip0_1759_2842">
<rect width="24" height="24" fill="white"/>
</clipPath>
</defs>
</svg>
