<svg width="19" height="24" viewBox="0 0 19 24" fill="none" xmlns="http://www.w3.org/2000/svg">
<g clip-path="url(#clip0_1759_2770)">
<path d="M18.4203 23.6997C18.66 23.6997 18.8541 23.5056 18.8541 23.2659V0.459187C18.8541 0.219502 18.66 0.0253906 18.4203 0.0253906H0.859578C0.619892 0.0253906 0.425781 0.219513 0.425781 0.459187V23.2659C0.425781 23.5056 0.619903 23.6997 0.859578 23.6997H18.4203ZM11.2662 22.6156H8.01374V18.2798H11.266V22.6156H11.2662ZM11.2662 16.7618H8.01374V14.5938H11.266V16.7618H11.2662ZM11.2662 13.0764H8.01374V10.9084H11.266V13.0764H11.2662ZM11.2662 9.39062H8.01374V7.22259H11.266V9.39062H11.2662ZM13.434 7.22259H16.6862V9.39062H13.434V7.22259ZM13.434 10.9084H16.6862V13.0764H13.434V10.9084ZM13.434 14.5938H16.6862V16.7618H13.434V14.5938ZM13.434 18.2796H16.6862V20.4476H13.434V18.2796ZM7.44798 2.71912H8.90924V1.25795H10.371V2.71947H11.8323V4.18099H10.371V5.64225H8.90924V4.18099H7.44798V2.71912ZM2.59378 7.22237H5.84599V9.39041H2.59378V7.22237ZM2.59378 10.9082H5.84599V13.0762H2.59378V10.9082ZM2.59378 14.5935H5.84599V16.7616H2.59378V14.5935ZM2.59378 18.2794H5.84599V20.4474H2.59378V18.2794Z" fill="#7A7A7A"/>
</g>
<defs>
<clipPath id="clip0_1759_2770">
<rect width="18.8571" height="24" fill="white"/>
</clipPath>
</defs>
</svg>
