<svg width="24" height="24" viewBox="0 0 24 24" fill="none" xmlns="http://www.w3.org/2000/svg">
<g clip-path="url(#clip0_1759_2878)">
<path d="M23.7032 10.1861L21.0205 9.38529C20.8351 8.73771 20.58 8.11212 20.2598 7.51947L21.5731 5.06107C21.6224 4.96827 21.6404 4.86206 21.6245 4.7582C21.6087 4.65433 21.5597 4.55835 21.485 4.4845L19.5711 2.56263C19.4973 2.48789 19.4013 2.43895 19.2974 2.42309C19.1936 2.40722 19.0874 2.42526 18.9946 2.47454L16.5522 3.77982C15.9537 3.44402 15.3199 3.17545 14.6623 2.97903L13.8615 0.328444C13.8277 0.230761 13.7637 0.146345 13.6788 0.0873453C13.5939 0.028346 13.4924 -0.00219354 13.3891 0.000122655H10.6824C10.5785 0.000606787 10.4773 0.0342636 10.3938 0.0961951C10.3103 0.158127 10.2487 0.2451 10.218 0.344459L9.4172 2.98704C8.75417 3.18241 8.11494 3.451 7.51134 3.78782L5.10899 2.49056C5.0162 2.44128 4.90998 2.42323 4.80612 2.4391C4.70226 2.45497 4.60628 2.5039 4.53243 2.57864L2.58653 4.4765C2.51179 4.55035 2.46286 4.64633 2.44699 4.75019C2.43112 4.85405 2.44916 4.96026 2.49844 5.05306L3.79571 7.45541C3.45943 8.05647 3.19086 8.69298 2.99493 9.35326L0.344337 10.154C0.244978 10.1847 0.158004 10.2463 0.0960724 10.3299C0.034141 10.4134 0.000484132 10.5145 0 10.6185L0 13.3251C0.000484132 13.4291 0.034141 13.5302 0.0960724 13.6138C0.158004 13.6973 0.244978 13.7589 0.344337 13.7896L3.01094 14.5904C3.20901 15.2397 3.47754 15.8653 3.81172 16.4562L2.49844 18.9707C2.44916 19.0635 2.43112 19.1697 2.44699 19.2735C2.46286 19.3774 2.51179 19.4734 2.58653 19.5472L4.5004 21.4611C4.57425 21.5358 4.67023 21.5848 4.77409 21.6006C4.87795 21.6165 4.98417 21.5985 5.07696 21.5492L7.55138 20.2279C8.13672 20.5437 8.75417 20.7961 9.39318 20.9806L10.194 23.6793C10.2246 23.7786 10.2862 23.8656 10.3698 23.9275C10.4533 23.9895 10.5544 24.0231 10.6584 24.0236H13.3651C13.469 24.0231 13.5702 23.9895 13.6537 23.9275C13.7372 23.8656 13.7988 23.7786 13.8295 23.6793L14.6303 20.9726C15.2638 20.7871 15.8759 20.5348 16.4561 20.2199L18.9465 21.5492C19.0393 21.5985 19.1455 21.6165 19.2494 21.6006C19.3532 21.5848 19.4492 21.5358 19.5231 21.4611L21.4369 19.5472C21.5117 19.4734 21.5606 19.3774 21.5765 19.2735C21.5924 19.1697 21.5743 19.0635 21.525 18.9707L20.1957 16.4882C20.5139 15.9058 20.769 15.2911 20.9565 14.6544L23.6551 13.8537C23.7545 13.823 23.8414 13.7614 23.9034 13.6778C23.9653 13.5943 23.999 13.4932 23.9995 13.3892V10.6585C24.0042 10.559 23.9783 10.4603 23.9254 10.3759C23.8724 10.2914 23.7949 10.2252 23.7032 10.1861V10.1861ZM12.0358 16.4162C11.1647 16.4162 10.3131 16.1579 9.58886 15.6739C8.86458 15.19 8.30007 14.5021 7.96672 13.6973C7.63336 12.8925 7.54614 12.007 7.71608 11.1526C7.88603 10.2983 8.30549 9.5135 8.92145 8.89755C9.5374 8.28159 10.3222 7.86213 11.1765 7.69218C12.0309 7.52224 12.9164 7.60946 13.7212 7.94281C14.526 8.27617 15.2139 8.84068 15.6978 9.56496C16.1818 10.2892 16.4401 11.1408 16.4401 12.0119C16.4401 13.18 15.976 14.3002 15.1501 15.1262C14.3241 15.9521 13.2039 16.4162 12.0358 16.4162V16.4162Z" fill="#7A7A7A"/>
</g>
<defs>
<clipPath id="clip0_1759_2878">
<rect width="24" height="24" fill="white"/>
</clipPath>
</defs>
</svg>
